<?xml version="1.0" encoding="UTF-8"?>
<svg width="752pt" height="752pt" version="1.1" viewBox="0 0 752 752" xmlns="http://www.w3.org/2000/svg">
 <path d="m373.78 309.54c-4.8672 0.47266-9.4648 2.4375-13.172 5.625l-99.453 85.246c-5.0039 4.0078-8.1641 9.8789-8.7656 16.262-0.59766 6.3867 1.418 12.742 5.5859 17.613 4.1719 4.875 10.141 7.8438 16.543 8.2383 6.3984 0.39453 12.688-1.8281 17.422-6.1523l84.059-72.07 84.062 72.07c4.7344 4.3281 11.02 6.5469 17.422 6.1523 6.4023-0.39062 12.371-3.3633 16.539-8.2344 4.1719-4.875 6.1875-11.23 5.5898-17.613-0.60156-6.3867-3.7656-12.254-8.7695-16.266l-99.453-85.246h0.003906c-4.8672-4.1836-11.223-6.2109-17.613-5.6211z"/>
</svg>
